<svg width="49" height="48" viewBox="0 0 49 48" fill="none" xmlns="http://www.w3.org/2000/svg">
<g clip-path="url(#clip0_207_553)">
<path d="M47.5698 40.236L36.8051 29.691C38.6794 26.718 39.8125 23.25 39.8125 19.5C39.8125 8.73 30.9006 0 19.9063 0C8.91188 0 0 8.73 0 19.5C0 30.27 8.91188 39 19.9063 39C23.7344 39 27.2746 37.89 30.3065 36.057L41.0743 46.602C41.9408 47.4228 43.102 47.8772 44.3073 47.8671C45.5127 47.857 46.6658 47.3833 47.5179 46.5482C48.3701 45.713 48.8531 44.5833 48.8628 43.4025C48.8725 42.2217 48.4081 41.0845 47.5698 40.236ZM19.9063 33C12.2959 33 6.125 26.955 6.125 19.5C6.125 12.045 12.2959 6 19.9063 6C27.5166 6 33.6875 12.045 33.6875 19.5C33.6875 26.955 27.5166 33 19.9063 33Z" fill="black" fill-opacity="0.3"/>
</g>
<defs>
<clipPath id="clip0_207_553">
<rect width="49" height="48" fill="white"/>
</clipPath>
</defs>
</svg>
