<svg width="93" height="94" viewBox="0 0 93 94" fill="none" xmlns="http://www.w3.org/2000/svg">
<g clip-path="url(#clip0_118_562)">
<path d="M44.1522 0.115688C35.4916 1.11032 28.6626 7.36921 26.7098 16.054C26.4429 17.2427 26.4308 17.4489 26.3944 26.5583C26.3459 35.7283 26.3459 35.8496 26.6006 36.5167C26.9281 37.4143 27.6559 38.2149 28.5171 38.6394C29.4511 39.1003 30.8217 39.1125 31.7799 38.6879C32.532 38.3604 33.4174 37.4507 33.7935 36.638C34.0603 36.0679 34.0603 35.9951 34.121 26.9707L34.1937 17.8735L34.5212 16.7818C35.2005 14.5863 36.0496 13.1187 37.5779 11.5297C39.1669 9.85578 41.0591 8.73986 43.3395 8.13338C44.9406 7.70884 47.6091 7.68458 49.1981 8.08486C51.527 8.66708 53.2737 9.66171 54.9961 11.372C56.6578 13.0459 57.6403 14.7319 58.2953 17.0608C58.55 17.9705 58.55 18.2374 58.6228 27.0313L58.6835 36.0679L58.9988 36.7472C59.387 37.572 60.0056 38.2027 60.8425 38.6394C61.6916 39.0761 63.2199 39.1125 64.1054 38.7C64.8453 38.3725 65.6459 37.572 66.034 36.7957L66.3251 36.1892V26.91C66.3251 18.4921 66.3009 17.5338 66.1068 16.5392C64.5299 8.55791 58.8775 2.52949 51.1631 0.588745C48.9676 0.0307846 46.3476 -0.13903 44.1522 0.115688Z" fill="#FFF3DB"/>
<path d="M0.885463 30.5246C0.618611 30.6459 0.376019 30.9127 0.230463 31.2038L0 31.6648L6.8775 59.7085C14.7011 91.5852 13.9733 89.0379 15.7321 90.7725C16.8723 91.9005 17.9761 92.5313 19.3953 92.8952C20.3171 93.1378 20.7902 93.1378 46.2503 93.1378C71.6497 93.1378 72.1834 93.1378 73.1053 92.8952C74.5366 92.5313 75.6404 91.9005 76.7684 90.7725C78.5272 89.0258 77.8116 91.5852 85.6231 59.7085L92.5006 31.6648L92.2701 31.2038C91.8092 30.2577 92.4884 30.3063 80.7348 30.3063H70.267V33.1931C70.267 35.6797 70.2306 36.2255 70.0244 37.0261C69.6605 38.4452 69.0176 39.5612 67.9623 40.6286C66.3612 42.2297 64.3356 43.006 62.0673 42.8847C58.9015 42.7027 56.1481 40.5801 55.1413 37.5355C54.8259 36.5894 54.8138 36.4317 54.7653 33.4236L54.7168 30.3063H46.3716H38.0264L37.9779 33.4236C37.9294 36.456 37.9172 36.5773 37.5897 37.5234C36.6557 40.2404 34.5937 42.1084 31.8524 42.727C27.8132 43.6367 23.6164 40.9925 22.6581 36.9533C22.5247 36.3832 22.4762 35.425 22.4762 33.2416V30.3063H11.8992C2.06204 30.3063 1.28574 30.3184 0.885463 30.5246Z" fill="#FFF3DB"/>
<path d="M23.2679 69.6902L22.9531 68.7459L23.2679 67.1721V58.5474H31.0584L31.8454 59.0195L30.8066 61.2229L29.3902 61.0655H26.1008V62.7968H30.3345V65.2362H28.4773L26.1008 65.0789V67.1721H30.8066L32.6795 68.683L31.7509 69.6902H23.2679ZM38.4939 69.8476C37.7804 69.8476 37.0879 69.7689 36.4164 69.6116C35.7449 69.4437 35.1363 69.1499 34.5907 68.7302C34.0556 68.3105 33.6307 67.7282 33.3159 66.9832C33.0012 66.2383 32.8438 65.2835 32.8438 64.1188C32.8438 63.0381 33.0012 62.1305 33.3159 61.3961C33.6307 60.6616 34.0504 60.074 34.575 59.6333C35.0996 59.1927 35.6715 58.8779 36.2905 58.689C36.92 58.4897 37.5496 58.39 38.1791 58.39C38.7142 58.39 39.2336 58.432 39.7372 58.5159C40.2514 58.5998 40.6238 58.6943 40.8547 58.7992L42.6017 60.2314L41.1852 62.5135L38.4939 61.1285C37.7489 61.1285 37.1194 61.3751 36.6053 61.8682C36.0912 62.3509 35.8341 63.1011 35.8341 64.1188C35.8341 64.8428 35.96 65.4304 36.2118 65.8815C36.4741 66.3327 36.8309 66.6632 37.282 66.8731C37.7332 67.0829 38.2473 67.1878 38.8244 67.1878C39.433 67.1878 39.9523 67.1406 40.3825 67.0462C40.8127 66.9413 41.1904 66.8206 41.5157 66.6842C41.841 66.5373 42.1505 66.3957 42.4443 66.2593V68.9033C42.077 69.1342 41.5891 69.3492 40.9806 69.5486C40.372 69.748 39.5431 69.8476 38.4939 69.8476ZM48.9532 69.8476C48.2817 69.8476 47.626 69.7689 46.9859 69.6116C46.3564 69.4437 45.7846 69.1499 45.2704 68.7302C44.7668 68.3105 44.3628 67.7282 44.0586 66.9832C43.7648 66.2383 43.6179 65.2835 43.6179 64.1188C43.6179 62.9542 43.7648 61.9994 44.0586 61.2544C44.3628 60.5094 44.7668 59.9271 45.2704 59.5074C45.7846 59.0877 46.3564 58.7992 46.9859 58.6418C47.626 58.4739 48.2817 58.39 48.9532 58.39C49.6248 58.39 50.2753 58.4739 50.9048 58.6418C51.5449 58.8097 52.1167 59.1035 52.6203 59.5232C53.1344 59.9429 53.5384 60.5252 53.8322 61.2701C54.1365 62.0151 54.2886 62.9647 54.2886 64.1188C54.2886 65.273 54.1365 66.2225 53.8322 66.9675C53.5384 67.7124 53.1344 68.2948 52.6203 68.7145C52.1167 69.1342 51.5449 69.4279 50.9048 69.5958C50.2753 69.7637 49.6248 69.8476 48.9532 69.8476ZM48.9532 67.1721C49.7297 67.1721 50.3173 66.9413 50.716 66.4796C51.1147 66.0179 51.314 65.231 51.314 64.1188C51.314 63.0066 51.1147 62.2197 50.716 61.758C50.3173 61.2964 49.7297 61.0655 48.9532 61.0655C48.1873 61.0655 47.605 61.3016 47.2063 61.7738C46.8076 62.2459 46.6082 63.0276 46.6082 64.1188C46.6082 65.21 46.8076 65.9917 47.2063 66.4639C47.605 66.936 48.1873 67.1721 48.9532 67.1721Z" fill="#FF8C20"/>
</g>
<defs>
<clipPath id="clip0_118_562">
<rect width="92.5006" height="93.1378" fill="white"/>
</clipPath>
</defs>
</svg>
